<svg width="357" height="95" viewBox="0 0 357 95" fill="none" xmlns="http://www.w3.org/2000/svg">
<path d="M322.303 83.0888C321.95 84.1763 322.544 85.3551 323.662 85.598C326.791 86.2781 330.045 86.225 333.166 85.4305C336.958 84.4652 340.399 82.4449 343.09 79.6039C345.781 76.7628 347.612 73.2173 348.37 69.3783C349.128 65.5393 348.782 61.5641 347.374 57.9134C345.965 54.2627 343.55 51.086 340.41 48.7516C337.269 46.4172 333.531 45.0206 329.629 44.7238C325.727 44.427 321.821 45.2421 318.364 47.0746C315.518 48.5829 313.072 50.7296 311.211 53.3354C310.547 54.2658 310.898 55.5382 311.89 56.1065V56.1065C312.883 56.6748 314.138 56.3214 314.825 55.4078C316.281 53.4734 318.149 51.8747 320.303 50.7331C323.069 49.2671 326.194 48.615 329.315 48.8525C332.437 49.0899 335.427 50.2072 337.939 52.0747C340.452 53.9422 342.384 56.4836 343.511 59.4041C344.638 62.3247 344.914 65.5049 344.308 68.5761C343.701 71.6473 342.237 74.4837 340.084 76.7565C337.931 79.0294 335.178 80.6456 332.145 81.4178C329.782 82.0192 327.325 82.0896 324.947 81.6347C323.824 81.4198 322.657 82.0013 322.303 83.0888V83.0888Z" fill="url(#paint0_linear)"/>
<path d="M311.574 55.7695C312.388 56.6388 313.76 56.689 314.564 55.8103C317.866 52.201 320.168 47.7757 321.222 42.9731C322.431 37.4666 321.941 31.7229 319.818 26.5003C317.695 21.2777 314.038 16.8217 309.33 13.7205C304.622 10.6193 299.084 9.01864 293.448 9.12983C287.811 9.24102 282.341 11.0588 277.759 14.3433C273.177 17.6278 269.698 22.2246 267.783 27.5268C265.867 32.8291 265.605 38.5876 267.029 44.0422C268.272 48.7994 270.748 53.1305 274.189 56.6067C275.027 57.4531 276.395 57.3489 277.175 56.4481V56.4481C277.954 55.5473 277.847 54.1919 277.021 53.3337C274.233 50.4368 272.224 46.865 271.202 42.9521C269.998 38.3415 270.22 33.474 271.839 28.9922C273.458 24.5104 276.398 20.6249 280.271 17.8487C284.144 15.0724 288.768 13.5359 293.533 13.4419C298.297 13.3479 302.978 14.7009 306.958 17.3222C310.937 19.9436 314.028 23.7101 315.823 28.1246C317.618 32.539 318.031 37.394 317.01 42.0485C316.143 45.9987 314.276 49.6469 311.605 52.6515C310.814 53.5416 310.76 54.9001 311.574 55.7695V55.7695Z" fill="url(#paint1_linear)"/>
<path d="M62.2902 51.704V57.968C62.2902 58.928 62.3862 59.636 62.5782 60.092C62.7942 60.524 63.1542 60.812 63.6582 60.956C64.1862 61.1 65.0142 61.184 66.1422 61.208V62C63.1902 61.928 60.9942 61.892 59.5542 61.892C58.3542 61.892 56.8422 61.916 55.0182 61.964L53.8662 62V61.28C54.6582 61.232 55.2342 61.136 55.5942 60.992C55.9782 60.848 56.2302 60.572 56.3502 60.164C56.4942 59.756 56.5662 59.096 56.5662 58.184V40.328C56.5662 39.416 56.4942 38.756 56.3502 38.348C56.2302 37.94 55.9782 37.664 55.5942 37.52C55.2342 37.376 54.6582 37.28 53.8662 37.232V36.512C55.0902 36.584 56.9142 36.62 59.3382 36.62L63.3342 36.584C63.8142 36.56 64.3662 36.548 64.9902 36.548C68.2302 36.548 70.7022 37.196 72.4062 38.492C74.1102 39.764 74.9622 41.48 74.9622 43.64C74.9622 44.96 74.6262 46.232 73.9542 47.456C73.2822 48.656 72.1422 49.664 70.5342 50.48C68.9502 51.296 66.8382 51.704 64.1982 51.704H62.2902ZM64.5222 37.232C63.8742 37.232 63.3942 37.316 63.0822 37.484C62.7942 37.652 62.5902 37.952 62.4702 38.384C62.3502 38.816 62.2902 39.464 62.2902 40.328V50.984H63.8382C65.7822 50.984 67.1262 50.36 67.8702 49.112C68.6142 47.864 68.9862 46.172 68.9862 44.036C68.9862 41.708 68.6382 39.992 67.9422 38.888C67.2702 37.784 66.1302 37.232 64.5222 37.232ZM94.7616 58.976C95.0736 59.768 95.4336 60.344 95.8416 60.704C96.2496 61.064 96.6456 61.256 97.0296 61.28V62C95.5896 61.928 93.7656 61.892 91.5576 61.892C89.1096 61.892 87.2856 61.928 86.0856 62V61.28C86.9976 61.232 87.6456 61.124 88.0296 60.956C88.4136 60.764 88.6056 60.44 88.6056 59.984C88.6056 59.552 88.4616 58.976 88.1736 58.256L86.0136 52.352H78.1656L77.2296 54.836C76.5576 56.564 76.2216 57.896 76.2216 58.832C76.2216 59.72 76.4856 60.344 77.0136 60.704C77.5656 61.04 78.3696 61.232 79.4256 61.28V62C77.7936 61.928 76.3056 61.892 74.9616 61.892C73.8576 61.892 72.9456 61.928 72.2256 62V61.28C73.4016 61.064 74.4336 59.804 75.3216 57.5L83.5296 36.44C83.7936 36.464 84.2136 36.476 84.7896 36.476C85.3656 36.476 85.7736 36.464 86.0136 36.44L94.7616 58.976ZM85.7616 51.632L82.1976 41.912L78.4536 51.632H85.7616ZM104.822 51.704V57.968C104.822 58.928 104.918 59.636 105.11 60.092C105.326 60.524 105.686 60.812 106.19 60.956C106.718 61.1 107.546 61.184 108.674 61.208V62C105.722 61.928 103.526 61.892 102.086 61.892C100.886 61.892 99.3742 61.916 97.5502 61.964L96.3982 62V61.28C97.1902 61.232 97.7662 61.136 98.1262 60.992C98.5102 60.848 98.7622 60.572 98.8822 60.164C99.0262 59.756 99.0982 59.096 99.0982 58.184V40.328C99.0982 39.416 99.0262 38.756 98.8822 38.348C98.7622 37.94 98.5102 37.664 98.1262 37.52C97.7662 37.376 97.1902 37.28 96.3982 37.232V36.512C97.6222 36.584 99.4462 36.62 101.87 36.62L105.866 36.584C106.346 36.56 106.898 36.548 107.522 36.548C110.762 36.548 113.234 37.196 114.938 38.492C116.642 39.764 117.494 41.48 117.494 43.64C117.494 44.96 117.158 46.232 116.486 47.456C115.814 48.656 114.674 49.664 113.066 50.48C111.482 51.296 109.37 51.704 106.73 51.704H104.822ZM107.054 37.232C106.406 37.232 105.926 37.316 105.614 37.484C105.326 37.652 105.122 37.952 105.002 38.384C104.882 38.816 104.822 39.464 104.822 40.328V50.984H106.37C108.314 50.984 109.658 50.36 110.402 49.112C111.146 47.864 111.518 46.172 111.518 44.036C111.518 41.708 111.17 39.992 110.474 38.888C109.802 37.784 108.662 37.232 107.054 37.232ZM129.509 37.232C128.693 37.28 128.105 37.376 127.745 37.52C127.385 37.664 127.133 37.94 126.989 38.348C126.869 38.756 126.809 39.416 126.809 40.328V58.184C126.809 59.096 126.869 59.756 126.989 60.164C127.133 60.572 127.385 60.848 127.745 60.992C128.105 61.136 128.693 61.232 129.509 61.28V62C128.213 61.928 126.401 61.892 124.073 61.892C121.505 61.892 119.609 61.928 118.385 62V61.28C119.177 61.232 119.753 61.136 120.113 60.992C120.497 60.848 120.749 60.572 120.869 60.164C121.013 59.756 121.085 59.096 121.085 58.184V40.328C121.085 39.416 121.013 38.756 120.869 38.348C120.749 37.94 120.497 37.664 120.113 37.52C119.753 37.376 119.177 37.28 118.385 37.232V36.512C119.609 36.584 121.505 36.62 124.073 36.62C126.401 36.62 128.213 36.584 129.509 36.512V37.232ZM142.36 37.232C141.496 37.28 140.86 37.376 140.452 37.52C140.068 37.664 139.804 37.94 139.66 38.348C139.516 38.756 139.444 39.416 139.444 40.328V58.616C139.444 59.384 139.504 59.948 139.624 60.308C139.744 60.644 139.948 60.872 140.236 60.992C140.548 61.112 141.04 61.172 141.712 61.172H143.476C145.108 61.172 146.512 60.44 147.688 58.976C148.888 57.512 149.668 55.568 150.028 53.144H150.856C150.784 53.96 150.748 55.016 150.748 56.312C150.748 58.616 150.832 60.512 151 62C149.368 61.928 146.62 61.892 142.756 61.892C137.524 61.892 133.612 61.928 131.02 62V61.28C131.812 61.232 132.388 61.136 132.748 60.992C133.132 60.848 133.384 60.572 133.504 60.164C133.648 59.756 133.72 59.096 133.72 58.184V40.328C133.72 39.416 133.648 38.756 133.504 38.348C133.384 37.94 133.132 37.664 132.748 37.52C132.388 37.376 131.812 37.28 131.02 37.232V36.512C132.244 36.584 134.14 36.62 136.708 36.62C139.156 36.62 141.04 36.584 142.36 36.512V37.232ZM163.468 37.232C162.604 37.28 161.968 37.376 161.56 37.52C161.176 37.664 160.912 37.94 160.768 38.348C160.624 38.756 160.552 39.416 160.552 40.328V58.616C160.552 59.384 160.612 59.948 160.732 60.308C160.852 60.644 161.056 60.872 161.344 60.992C161.656 61.112 162.148 61.172 162.82 61.172H164.584C166.216 61.172 167.62 60.44 168.796 58.976C169.996 57.512 170.776 55.568 171.136 53.144H171.964C171.892 53.96 171.856 55.016 171.856 56.312C171.856 58.616 171.94 60.512 172.108 62C170.476 61.928 167.728 61.892 163.864 61.892C158.632 61.892 154.72 61.928 152.128 62V61.28C152.92 61.232 153.496 61.136 153.856 60.992C154.24 60.848 154.492 60.572 154.612 60.164C154.756 59.756 154.828 59.096 154.828 58.184V40.328C154.828 39.416 154.756 38.756 154.612 38.348C154.492 37.94 154.24 37.664 153.856 37.52C153.496 37.376 152.92 37.28 152.128 37.232V36.512C153.352 36.584 155.248 36.62 157.816 36.62C160.264 36.62 162.148 36.584 163.468 36.512V37.232ZM186.304 36.008C188.848 36.008 191.068 36.524 192.964 37.556C194.884 38.588 196.372 40.088 197.428 42.056C198.484 44 199.012 46.328 199.012 49.04C199.012 51.68 198.472 54.02 197.392 56.06C196.312 58.1 194.8 59.684 192.856 60.812C190.936 61.94 188.74 62.504 186.268 62.504C183.724 62.504 181.492 61.988 179.572 60.956C177.676 59.924 176.2 58.436 175.144 56.492C174.088 54.524 173.56 52.184 173.56 49.472C173.56 46.832 174.1 44.492 175.18 42.452C176.26 40.412 177.76 38.828 179.68 37.7C181.624 36.572 183.832 36.008 186.304 36.008ZM186.16 36.656C184.84 36.656 183.676 37.196 182.668 38.276C181.66 39.332 180.88 40.82 180.328 42.74C179.8 44.66 179.536 46.856 179.536 49.328C179.536 51.824 179.836 54.02 180.436 55.916C181.06 57.812 181.888 59.276 182.92 60.308C183.976 61.34 185.14 61.856 186.412 61.856C187.732 61.856 188.896 61.328 189.904 60.272C190.912 59.192 191.68 57.692 192.208 55.772C192.76 53.852 193.036 51.656 193.036 49.184C193.036 46.688 192.724 44.492 192.1 42.596C191.5 40.7 190.672 39.236 189.616 38.204C188.584 37.172 187.432 36.656 186.16 36.656ZM224.325 37.232C223.533 37.352 222.945 37.556 222.561 37.844C222.201 38.132 221.949 38.588 221.805 39.212C221.685 39.836 221.625 40.76 221.625 41.984V62.072L220.761 62.036L219.789 62.072L204.165 42.272V56.096C204.165 57.512 204.237 58.556 204.381 59.228C204.525 59.876 204.837 60.356 205.317 60.668C205.797 60.956 206.577 61.16 207.657 61.28V62C206.721 61.928 205.425 61.892 203.769 61.892C202.449 61.892 201.405 61.928 200.637 62V61.28C201.429 61.16 202.005 60.956 202.365 60.668C202.749 60.38 203.001 59.924 203.121 59.3C203.265 58.676 203.337 57.752 203.337 56.528V40.328C203.337 39.416 203.265 38.756 203.121 38.348C203.001 37.94 202.749 37.664 202.365 37.52C202.005 37.376 201.429 37.28 200.637 37.232V36.512C201.405 36.584 202.449 36.62 203.769 36.62C204.969 36.62 206.001 36.584 206.865 36.512L220.797 53.684V42.416C220.797 41 220.725 39.968 220.581 39.32C220.437 38.648 220.125 38.168 219.645 37.88C219.165 37.568 218.385 37.352 217.305 37.232V36.512C218.241 36.584 219.537 36.62 221.193 36.62C222.537 36.62 223.581 36.584 224.325 36.512V37.232Z" fill="#BCB859"/>
<defs>
<linearGradient id="paint0_linear" x1="340.314" y1="48.6808" x2="315.804" y2="82.0537" gradientUnits="userSpaceOnUse">
<stop stop-color="#827D1C"/>
<stop offset="1" stop-color="#BCB859"/>
</linearGradient>
<linearGradient id="paint1_linear" x1="282.299" y1="11.698" x2="305.696" y2="62.2967" gradientUnits="userSpaceOnUse">
<stop stop-color="#827D1C"/>
<stop offset="1" stop-color="#BCB859"/>
</linearGradient>
</defs>
</svg>
