<svg width="303" height="94" viewBox="0 0 303 94" fill="none" xmlns="http://www.w3.org/2000/svg">
<path d="M268.09 82.8171C267.738 83.901 268.33 85.0759 269.444 85.318C272.562 85.9959 275.806 85.943 278.917 85.1511C282.697 84.189 286.126 82.1753 288.808 79.3435C291.49 76.5117 293.315 72.9778 294.071 69.1514C294.826 65.325 294.482 61.3627 293.078 57.724C291.674 54.0852 289.267 50.9189 286.137 48.5921C283.006 46.2654 279.281 44.8734 275.392 44.5775C271.503 44.2817 267.609 45.0941 264.163 46.9206C261.326 48.424 258.888 50.5637 257.034 53.1609C256.371 54.0884 256.722 55.3566 257.711 55.923V55.923C258.7 56.4894 259.951 56.1372 260.636 55.2266C262.087 53.2985 263.949 51.705 266.096 50.5672C268.853 49.106 271.967 48.456 275.079 48.6927C278.19 48.9294 281.17 50.043 283.675 51.9044C286.179 53.7658 288.104 56.2988 289.228 59.2099C290.351 62.1209 290.626 65.2907 290.022 68.3518C289.417 71.4129 287.958 74.2401 285.812 76.5055C283.666 78.7709 280.923 80.3819 277.899 81.1516C275.544 81.751 273.095 81.8211 270.724 81.3677C269.605 81.1535 268.442 81.7331 268.09 82.8171V82.8171Z" fill="url(#paint0_linear)"/>
<path d="M257.396 55.5871C258.207 56.4537 259.574 56.5037 260.376 55.6278C263.666 52.0303 265.962 47.6195 267.012 42.8326C268.217 37.3441 267.729 31.6192 265.613 26.4137C263.497 21.2082 259.852 16.7668 255.159 13.6757C250.466 10.5846 244.947 8.9892 239.329 9.10003C233.71 9.21085 228.258 11.0227 223.691 14.2965C219.124 17.5702 215.657 22.1519 213.747 27.4368C211.838 32.7218 211.576 38.4614 212.997 43.8982C214.235 48.6399 216.703 52.9568 220.133 56.4217C220.968 57.2653 222.332 57.1614 223.109 56.2635V56.2635C223.885 55.3657 223.779 54.0147 222.955 53.1593C220.177 50.2719 218.175 46.7118 217.156 42.8117C215.955 38.2162 216.177 33.3646 217.791 28.8975C219.404 24.4303 222.335 20.5575 226.195 17.7903C230.056 15.0232 234.664 13.4916 239.413 13.398C244.162 13.3043 248.828 14.6528 252.794 17.2656C256.761 19.8784 259.842 23.6326 261.631 28.0326C263.419 32.4327 263.832 37.2717 262.813 41.911C261.949 45.8483 260.089 49.4846 257.426 52.4793C256.638 53.3665 256.585 54.7206 257.396 55.5871V55.5871Z" fill="url(#paint1_linear)"/>
<path d="M11.7902 49.704V55.968C11.7902 56.928 11.8862 57.636 12.0782 58.092C12.2942 58.524 12.6542 58.812 13.1582 58.956C13.6862 59.1 14.5142 59.184 15.6422 59.208V60C12.6902 59.928 10.4942 59.892 9.05419 59.892C7.85419 59.892 6.34219 59.916 4.51819 59.964L3.36619 60V59.28C4.15819 59.232 4.73419 59.136 5.09419 58.992C5.47819 58.848 5.73019 58.572 5.85019 58.164C5.99419 57.756 6.06619 57.096 6.06619 56.184V38.328C6.06619 37.416 5.99419 36.756 5.85019 36.348C5.73019 35.94 5.47819 35.664 5.09419 35.52C4.73419 35.376 4.15819 35.28 3.36619 35.232V34.512C4.59019 34.584 6.41419 34.62 8.83819 34.62L12.8342 34.584C13.3142 34.56 13.8662 34.548 14.4902 34.548C17.7302 34.548 20.2022 35.196 21.9062 36.492C23.6102 37.764 24.4622 39.48 24.4622 41.64C24.4622 42.96 24.1262 44.232 23.4542 45.456C22.7822 46.656 21.6422 47.664 20.0342 48.48C18.4502 49.296 16.3382 49.704 13.6982 49.704H11.7902ZM14.0222 35.232C13.3742 35.232 12.8942 35.316 12.5822 35.484C12.2942 35.652 12.0902 35.952 11.9702 36.384C11.8502 36.816 11.7902 37.464 11.7902 38.328V48.984H13.3382C15.2822 48.984 16.6262 48.36 17.3702 47.112C18.1142 45.864 18.4862 44.172 18.4862 42.036C18.4862 39.708 18.1382 37.992 17.4422 36.888C16.7702 35.784 15.6302 35.232 14.0222 35.232ZM44.2616 56.976C44.5736 57.768 44.9336 58.344 45.3416 58.704C45.7496 59.064 46.1456 59.256 46.5296 59.28V60C45.0896 59.928 43.2656 59.892 41.0576 59.892C38.6096 59.892 36.7856 59.928 35.5856 60V59.28C36.4976 59.232 37.1456 59.124 37.5296 58.956C37.9136 58.764 38.1056 58.44 38.1056 57.984C38.1056 57.552 37.9616 56.976 37.6736 56.256L35.5136 50.352H27.6656L26.7296 52.836C26.0576 54.564 25.7216 55.896 25.7216 56.832C25.7216 57.72 25.9856 58.344 26.5136 58.704C27.0656 59.04 27.8696 59.232 28.9256 59.28V60C27.2936 59.928 25.8056 59.892 24.4616 59.892C23.3576 59.892 22.4456 59.928 21.7256 60V59.28C22.9016 59.064 23.9336 57.804 24.8216 55.5L33.0296 34.44C33.2936 34.464 33.7136 34.476 34.2896 34.476C34.8656 34.476 35.2736 34.464 35.5136 34.44L44.2616 56.976ZM35.2616 49.632L31.6976 39.912L27.9536 49.632H35.2616ZM54.3222 49.704V55.968C54.3222 56.928 54.4182 57.636 54.6102 58.092C54.8262 58.524 55.1862 58.812 55.6902 58.956C56.2182 59.1 57.0462 59.184 58.1742 59.208V60C55.2222 59.928 53.0262 59.892 51.5862 59.892C50.3862 59.892 48.8742 59.916 47.0502 59.964L45.8982 60V59.28C46.6902 59.232 47.2662 59.136 47.6262 58.992C48.0102 58.848 48.2622 58.572 48.3822 58.164C48.5262 57.756 48.5982 57.096 48.5982 56.184V38.328C48.5982 37.416 48.5262 36.756 48.3822 36.348C48.2622 35.94 48.0102 35.664 47.6262 35.52C47.2662 35.376 46.6902 35.28 45.8982 35.232V34.512C47.1222 34.584 48.9462 34.62 51.3702 34.62L55.3662 34.584C55.8462 34.56 56.3982 34.548 57.0222 34.548C60.2622 34.548 62.7342 35.196 64.4382 36.492C66.1422 37.764 66.9942 39.48 66.9942 41.64C66.9942 42.96 66.6582 44.232 65.9862 45.456C65.3142 46.656 64.1742 47.664 62.5662 48.48C60.9822 49.296 58.8702 49.704 56.2302 49.704H54.3222ZM56.5542 35.232C55.9062 35.232 55.4262 35.316 55.1142 35.484C54.8262 35.652 54.6222 35.952 54.5022 36.384C54.3822 36.816 54.3222 37.464 54.3222 38.328V48.984H55.8702C57.8142 48.984 59.1582 48.36 59.9022 47.112C60.6462 45.864 61.0182 44.172 61.0182 42.036C61.0182 39.708 60.6702 37.992 59.9742 36.888C59.3022 35.784 58.1622 35.232 56.5542 35.232ZM79.0089 35.232C78.1929 35.28 77.6049 35.376 77.2449 35.52C76.8849 35.664 76.6329 35.94 76.4889 36.348C76.3689 36.756 76.3089 37.416 76.3089 38.328V56.184C76.3089 57.096 76.3689 57.756 76.4889 58.164C76.6329 58.572 76.8849 58.848 77.2449 58.992C77.6049 59.136 78.1929 59.232 79.0089 59.28V60C77.7129 59.928 75.9009 59.892 73.5729 59.892C71.0049 59.892 69.1089 59.928 67.8849 60V59.28C68.6769 59.232 69.2529 59.136 69.6129 58.992C69.9969 58.848 70.2489 58.572 70.3689 58.164C70.5129 57.756 70.5849 57.096 70.5849 56.184V38.328C70.5849 37.416 70.5129 36.756 70.3689 36.348C70.2489 35.94 69.9969 35.664 69.6129 35.52C69.2529 35.376 68.6769 35.28 67.8849 35.232V34.512C69.1089 34.584 71.0049 34.62 73.5729 34.62C75.9009 34.62 77.7129 34.584 79.0089 34.512V35.232ZM91.8601 35.232C90.9961 35.28 90.3601 35.376 89.9521 35.52C89.5681 35.664 89.3041 35.94 89.1601 36.348C89.0161 36.756 88.9441 37.416 88.9441 38.328V56.616C88.9441 57.384 89.0041 57.948 89.1241 58.308C89.2441 58.644 89.4481 58.872 89.7361 58.992C90.0481 59.112 90.5401 59.172 91.2121 59.172H92.9761C94.6081 59.172 96.0121 58.44 97.1881 56.976C98.3881 55.512 99.1681 53.568 99.5281 51.144H100.356C100.284 51.96 100.248 53.016 100.248 54.312C100.248 56.616 100.332 58.512 100.5 60C98.8681 59.928 96.1201 59.892 92.2561 59.892C87.0241 59.892 83.1121 59.928 80.5201 60V59.28C81.3121 59.232 81.8881 59.136 82.2481 58.992C82.6321 58.848 82.8841 58.572 83.0041 58.164C83.1481 57.756 83.2201 57.096 83.2201 56.184V38.328C83.2201 37.416 83.1481 36.756 83.0041 36.348C82.8841 35.94 82.6321 35.664 82.2481 35.52C81.8881 35.376 81.3121 35.28 80.5201 35.232V34.512C81.7441 34.584 83.6401 34.62 86.2081 34.62C88.6561 34.62 90.5401 34.584 91.8601 34.512V35.232ZM112.968 35.232C112.104 35.28 111.468 35.376 111.06 35.52C110.676 35.664 110.412 35.94 110.268 36.348C110.124 36.756 110.052 37.416 110.052 38.328V56.616C110.052 57.384 110.112 57.948 110.232 58.308C110.352 58.644 110.556 58.872 110.844 58.992C111.156 59.112 111.648 59.172 112.32 59.172H114.084C115.716 59.172 117.12 58.44 118.296 56.976C119.496 55.512 120.276 53.568 120.636 51.144H121.464C121.392 51.96 121.356 53.016 121.356 54.312C121.356 56.616 121.44 58.512 121.608 60C119.976 59.928 117.228 59.892 113.364 59.892C108.132 59.892 104.22 59.928 101.628 60V59.28C102.42 59.232 102.996 59.136 103.356 58.992C103.74 58.848 103.992 58.572 104.112 58.164C104.256 57.756 104.328 57.096 104.328 56.184V38.328C104.328 37.416 104.256 36.756 104.112 36.348C103.992 35.94 103.74 35.664 103.356 35.52C102.996 35.376 102.42 35.28 101.628 35.232V34.512C102.852 34.584 104.748 34.62 107.316 34.62C109.764 34.62 111.648 34.584 112.968 34.512V35.232ZM135.804 34.008C138.348 34.008 140.568 34.524 142.464 35.556C144.384 36.588 145.872 38.088 146.928 40.056C147.984 42 148.512 44.328 148.512 47.04C148.512 49.68 147.972 52.02 146.892 54.06C145.812 56.1 144.3 57.684 142.356 58.812C140.436 59.94 138.24 60.504 135.768 60.504C133.224 60.504 130.992 59.988 129.072 58.956C127.176 57.924 125.7 56.436 124.644 54.492C123.588 52.524 123.06 50.184 123.06 47.472C123.06 44.832 123.6 42.492 124.68 40.452C125.76 38.412 127.26 36.828 129.18 35.7C131.124 34.572 133.332 34.008 135.804 34.008ZM135.66 34.656C134.34 34.656 133.176 35.196 132.168 36.276C131.16 37.332 130.38 38.82 129.828 40.74C129.3 42.66 129.036 44.856 129.036 47.328C129.036 49.824 129.336 52.02 129.936 53.916C130.56 55.812 131.388 57.276 132.42 58.308C133.476 59.34 134.64 59.856 135.912 59.856C137.232 59.856 138.396 59.328 139.404 58.272C140.412 57.192 141.18 55.692 141.708 53.772C142.26 51.852 142.536 49.656 142.536 47.184C142.536 44.688 142.224 42.492 141.6 40.596C141 38.7 140.172 37.236 139.116 36.204C138.084 35.172 136.932 34.656 135.66 34.656ZM173.825 35.232C173.033 35.352 172.445 35.556 172.061 35.844C171.701 36.132 171.449 36.588 171.305 37.212C171.185 37.836 171.125 38.76 171.125 39.984V60.072L170.261 60.036L169.289 60.072L153.665 40.272V54.096C153.665 55.512 153.737 56.556 153.881 57.228C154.025 57.876 154.337 58.356 154.817 58.668C155.297 58.956 156.077 59.16 157.157 59.28V60C156.221 59.928 154.925 59.892 153.269 59.892C151.949 59.892 150.905 59.928 150.137 60V59.28C150.929 59.16 151.505 58.956 151.865 58.668C152.249 58.38 152.501 57.924 152.621 57.3C152.765 56.676 152.837 55.752 152.837 54.528V38.328C152.837 37.416 152.765 36.756 152.621 36.348C152.501 35.94 152.249 35.664 151.865 35.52C151.505 35.376 150.929 35.28 150.137 35.232V34.512C150.905 34.584 151.949 34.62 153.269 34.62C154.469 34.62 155.501 34.584 156.365 34.512L170.297 51.684V40.416C170.297 39 170.225 37.968 170.081 37.32C169.937 36.648 169.625 36.168 169.145 35.88C168.665 35.568 167.885 35.352 166.805 35.232V34.512C167.741 34.584 169.037 34.62 170.693 34.62C172.037 34.62 173.081 34.584 173.825 34.512V35.232Z" fill="url(#paint2_linear)"/>
<defs>
<linearGradient id="paint0_linear" x1="286.041" y1="48.5216" x2="261.612" y2="81.7853" gradientUnits="userSpaceOnUse">
<stop stop-color="#A8810C"/>
<stop offset="1" stop-color="#A8810C" stop-opacity="0.5"/>
</linearGradient>
<linearGradient id="paint1_linear" x1="228.217" y1="11.6598" x2="251.536" y2="62.0931" gradientUnits="userSpaceOnUse">
<stop stop-color="#A8810C"/>
<stop offset="1" stop-color="#A8810C" stop-opacity="0.5"/>
</linearGradient>
<linearGradient id="paint2_linear" x1="35.018" y1="45" x2="140.072" y2="45" gradientUnits="userSpaceOnUse">
<stop stop-color="#A8810C"/>
<stop offset="1" stop-color="#DAB546"/>
</linearGradient>
</defs>
</svg>
