<svg width="100" height="95" viewBox="0 0 100 95" fill="none" xmlns="http://www.w3.org/2000/svg">
<path d="M65.3034 83.0888C64.9502 84.1763 65.5444 85.3551 66.6617 85.598C69.7907 86.2781 73.0447 86.225 76.166 85.4305C79.9582 84.4652 83.3992 82.4449 86.0901 79.6039C88.7809 76.7628 90.6116 73.2173 91.3697 69.3783C92.1278 65.5393 91.7825 61.5641 90.3736 57.9134C88.9647 54.2627 86.5501 51.086 83.4095 48.7516C80.269 46.4172 76.5311 45.0206 72.6293 44.7238C68.7274 44.427 64.8213 45.2421 61.3638 47.0746C58.518 48.5829 56.0719 50.7296 54.211 53.3354C53.5465 54.2658 53.8983 55.5382 54.8905 56.1065C55.8827 56.6748 57.1379 56.3214 57.8254 55.4078C59.2812 53.4734 61.1489 51.8747 63.3028 50.7331C66.0688 49.2671 69.1937 48.615 72.3152 48.8525C75.4367 49.0899 78.4269 50.2072 80.9394 52.0747C83.4518 53.9422 85.3836 56.4836 86.5107 59.4041C87.6377 62.3247 87.9141 65.5049 87.3075 68.5761C86.701 71.6473 85.2365 74.4837 83.0838 76.7565C80.9311 79.0294 78.1783 80.6456 75.1446 81.4178C72.7822 82.0192 70.3247 82.0896 67.9468 81.6347C66.8238 81.4198 65.6566 82.0013 65.3034 83.0888Z" fill="url(#paint0_linear)"/>
<path d="M54.5744 55.7695C55.3884 56.6388 56.76 56.689 57.5639 55.8103C60.8655 52.201 63.1682 47.7757 64.2223 42.9731C65.431 37.4666 64.9414 31.7229 62.8183 26.5003C60.6951 21.2777 57.0381 16.8217 52.3301 13.7205C47.6221 10.6193 42.0843 9.01864 36.4477 9.12983C30.8111 9.24102 25.3408 11.0588 20.7587 14.3433C16.1767 17.6278 12.6983 22.2246 10.7827 27.5268C8.86719 32.8291 8.60454 38.5876 10.0294 44.0422C11.2722 48.7994 13.7476 53.1305 17.1889 56.6067C18.0268 57.4531 19.3954 57.3489 20.1745 56.4481C20.9536 55.5473 20.8467 54.1919 20.0209 53.3337C17.2332 50.4368 15.2245 46.865 14.2023 42.9521C12.9979 38.3415 13.2199 33.474 14.839 28.9922C16.4582 24.5104 19.3983 20.6249 23.2714 17.8487C27.1445 15.0724 31.7684 13.5359 36.5328 13.4419C41.2972 13.3479 45.9781 14.7009 49.9576 17.3222C53.9372 19.9436 57.0283 23.7101 58.8229 28.1246C60.6176 32.539 61.0314 37.394 60.0097 42.0485C59.1427 45.9987 57.2763 49.6469 54.6051 52.6515C53.8137 53.5416 53.7604 54.9001 54.5744 55.7695Z" fill="url(#paint1_linear)"/>
<defs>
<linearGradient id="paint0_linear" x1="83.3137" y1="48.6808" x2="58.8042" y2="82.0537" gradientUnits="userSpaceOnUse">
<stop stop-color="#827D1C"/>
<stop offset="1" stop-color="#BCB859"/>
</linearGradient>
<linearGradient id="paint1_linear" x1="25.2994" y1="11.698" x2="48.6955" y2="62.2967" gradientUnits="userSpaceOnUse">
<stop stop-color="#827D1C"/>
<stop offset="1" stop-color="#BCB859"/>
</linearGradient>
</defs>
</svg>
