<svg width="703" height="688" viewBox="0 0 703 688" fill="none" xmlns="http://www.w3.org/2000/svg">
<rect x="15" width="688" height="688" rx="160" fill="#333333"/>
<path d="M458.948 608.943C456.466 616.586 460.642 624.871 468.494 626.578C490.484 631.357 513.353 630.985 535.29 625.401C561.941 618.617 586.124 604.418 605.035 584.451C623.947 564.485 636.812 539.567 642.14 512.587C647.469 485.607 645.041 457.669 635.14 432.012C625.238 406.355 608.268 384.029 586.197 367.623C564.125 351.217 537.856 341.402 510.434 339.316C483.012 337.23 455.56 342.959 431.261 355.837C411.26 366.438 394.07 381.525 380.991 399.838C376.321 406.377 378.794 415.319 385.766 419.313C392.739 423.307 401.561 420.824 406.393 414.403C416.624 400.808 429.75 389.572 444.888 381.549C464.327 371.246 486.289 366.664 508.226 368.333C530.164 370.001 551.179 377.853 568.837 390.978C586.494 404.103 600.07 421.963 607.991 442.489C615.912 463.015 617.854 485.365 613.592 506.949C609.329 528.533 599.037 548.467 583.908 564.441C568.779 580.414 549.432 591.773 528.111 597.2C511.508 601.426 494.237 601.921 477.526 598.724C469.633 597.214 461.43 601.301 458.948 608.943Z" fill="url(#paint0_linear)"/>
<path d="M383.546 416.945C389.267 423.055 398.907 423.408 404.556 417.232C427.76 391.866 443.942 360.765 451.351 327.013C459.845 288.313 456.405 247.947 441.483 211.243C426.562 174.539 400.861 143.223 367.773 121.427C334.685 99.6323 295.766 88.3829 256.153 89.1644C216.539 89.9458 178.094 102.721 145.891 125.804C113.689 148.888 89.2428 181.193 75.7805 218.457C62.3182 255.721 60.4722 296.192 70.4863 334.526C79.2201 367.96 96.6171 398.398 120.803 422.83C126.692 428.778 136.31 428.045 141.785 421.714C147.261 415.384 146.51 405.858 140.706 399.827C121.114 379.468 106.997 354.365 99.8129 326.866C91.3483 294.462 92.9086 260.254 104.288 228.756C115.667 197.258 136.33 169.951 163.55 150.44C190.77 130.928 223.266 120.13 256.75 119.469C290.234 118.809 323.131 128.317 351.1 146.74C379.068 165.163 400.792 191.634 413.404 222.658C426.017 253.683 428.925 287.803 421.745 320.515C415.651 348.277 402.535 373.916 383.761 395.032C378.2 401.288 377.825 410.835 383.546 416.945Z" fill="url(#paint1_linear)"/>
<defs>
<linearGradient id="paint0_linear" x1="585.523" y1="367.126" x2="413.272" y2="601.669" gradientUnits="userSpaceOnUse">
<stop stop-color="#827D1C"/>
<stop offset="1" stop-color="#BCB859"/>
</linearGradient>
<linearGradient id="paint1_linear" x1="177.802" y1="107.214" x2="342.23" y2="462.819" gradientUnits="userSpaceOnUse">
<stop stop-color="#827D1C"/>
<stop offset="1" stop-color="#BCB859"/>
</linearGradient>
</defs>
</svg>
