<svg width="71" height="100" viewBox="0 0 71 100" fill="none" xmlns="http://www.w3.org/2000/svg">
<path fill-rule="evenodd" clip-rule="evenodd" d="M38.9177 0H50.9902V0.11702L50.9948 0.116952C51.0247 2.15801 51.5198 4.16535 52.4424 5.9862C53.3651 7.80705 54.691 9.39342 56.3192 10.6246C57.9474 11.8557 59.835 12.6992 61.8384 13.0908C63.8417 13.4824 65.908 13.4118 67.88 12.8844L71 24.55C67.2535 25.552 63.3279 25.6861 59.5218 24.9421C56.4928 24.35 53.6031 23.2142 50.9902 21.5962V74.2613V74.3408H50.99C50.9744 79.3555 49.4802 84.255 46.6935 88.4256C43.892 92.6183 39.9102 95.886 35.2516 97.8157C30.593 99.7454 25.4668 100.25 20.5212 99.2665C15.5757 98.2828 11.0329 95.8546 7.46734 92.2891C3.90179 88.7235 1.47362 84.1807 0.489892 79.2352C-0.493841 74.2896 0.0110466 69.1634 1.94071 64.5048C3.87037 59.8462 7.13814 55.8644 11.3308 53.063C15.5234 50.2615 20.4526 48.7663 25.4951 48.7663V60.8419C22.841 60.8419 20.2465 61.6289 18.0396 63.1035C15.8328 64.578 14.1128 66.6739 13.0971 69.1259C12.0814 71.578 11.8157 74.2762 12.3335 76.8793C12.8513 79.4825 14.1294 81.8736 16.0061 83.7503C17.8828 85.6271 20.274 86.9051 22.8771 87.4229C25.4802 87.9407 28.1784 87.675 30.6305 86.6593C33.0826 85.6436 35.1784 83.9236 36.6529 81.7168C38.1275 79.51 38.9145 76.9155 38.9145 74.2613H38.9177V0Z" fill="url(#paint0_linear)"/>
<defs>
<linearGradient id="paint0_linear" x1="35.5" y1="0" x2="35.5" y2="99.7564" gradientUnits="userSpaceOnUse">
<stop stop-color="#FFDB6F"/>
<stop offset="1" stop-color="#FFDB6F" stop-opacity="0.5"/>
</linearGradient>
</defs>
</svg>
